# xmcd
#
# Track frame offsets: 
#        150
#        14562
#        29636
#        47669
#        78885
#        109025
#        139057
#
# Disc length: 2291 seconds
#
# Revision: 0
# Processed by: cddbd v1.5.2PL0 Copyright (c) Steve Scherf et al.
# Submitted via: ExactAudioCopy v0.95b4
#
DISCID=5508f107
DTITLE=Special D - Home alone
DYEAR=1900
DGENRE=
TTITLE0=single edit
TTITLE1=video edit
TTITLE2=gollum vs yanny rmx radio edit
TTITLE3=club mix
TTITLE4=megara vs dj lee remix
TTITLE5=gollum vs yanny rmx
TTITLE6=staccato rmx
EXTD=
EXTT0=
EXTT1=
EXTT2=
EXTT3=
EXTT4=
EXTT5=
EXTT6=
PLAYORDER=
